<svg xmlns="http://www.w3.org/2000/svg" viewBox="0 0 1200 1200" role="img" aria-labelledby="title desc">
  <title id="title">Modern clinic reception</title>
  <desc id="desc">A bright clinic interior with a reception desk, seating, plants, and medical symbols.</desc>
  <defs>
    <linearGradient id="wall" x1="0" y1="0" x2="1" y2="1">
      <stop offset="0" stop-color="#f6fbfa"/>
      <stop offset="1" stop-color="#dcefeb"/>
    </linearGradient>
    <linearGradient id="window" x1="0" y1="0" x2="0" y2="1">
      <stop offset="0" stop-color="#b7ddea"/>
      <stop offset="1" stop-color="#e7f5f5"/>
    </linearGradient>
    <linearGradient id="desk" x1="0" y1="0" x2="1" y2="1">
      <stop offset="0" stop-color="#fdfefe"/>
      <stop offset="1" stop-color="#d7e7e4"/>
    </linearGradient>
    <filter id="shadow" x="-20%" y="-20%" width="140%" height="160%">
      <feDropShadow dx="0" dy="18" stdDeviation="18" flood-color="#164c4c" flood-opacity=".14"/>
    </filter>
  </defs>

  <rect width="1200" height="1200" fill="url(#wall)"/>
  <circle cx="1030" cy="150" r="250" fill="#b7ddd6" opacity=".32"/>
  <circle cx="170" cy="80" r="180" fill="#d9ece8" opacity=".65"/>

  <rect x="94" y="116" width="460" height="502" rx="20" fill="#f8fcfb" stroke="#c9dfdb" stroke-width="8"/>
  <rect x="122" y="144" width="404" height="446" rx="8" fill="url(#window)"/>
  <path d="M324 144v446M122 360h404" stroke="#f8fcfb" stroke-width="16"/>
  <path d="M122 492c76-76 135-67 194-23 75-96 143-96 210-26v147H122z" fill="#8cc4b9" opacity=".45"/>

  <g transform="translate(700 120)">
    <rect width="328" height="210" rx="26" fill="#fff" filter="url(#shadow)"/>
    <circle cx="164" cy="84" r="44" fill="#dff2ee"/>
    <path d="M164 56v56M136 84h56" stroke="#2c7b73" stroke-width="17" stroke-linecap="round"/>
    <text x="164" y="165" text-anchor="middle" fill="#295d59" font-family="Arial, sans-serif" font-size="30" font-weight="700">CARE CLINIC</text>
  </g>

  <path d="M0 805c236-58 391-24 566 18 216 51 407 9 634-67v444H0z" fill="#c9ded9"/>
  <path d="M0 895c227-61 413-45 599 4 190 50 389 44 601-28v329H0z" fill="#b5d1cb"/>

  <g filter="url(#shadow)">
    <path d="M457 570h518c40 0 72 32 72 72v266H385V642c0-40 32-72 72-72z" fill="url(#desk)"/>
    <path d="M385 718h662v190H385z" fill="#eef6f4"/>
    <rect x="650" y="718" width="132" height="190" fill="#5a9d94"/>
    <circle cx="716" cy="814" r="33" fill="#dff1ed"/>
    <path d="M716 794v40M696 814h40" stroke="#3c8279" stroke-width="10" stroke-linecap="round"/>
    <rect x="587" y="514" width="236" height="30" rx="15" fill="#9dbbb6"/>
    <rect x="620" y="402" width="170" height="118" rx="12" fill="#335f62"/>
    <rect x="634" y="416" width="142" height="88" rx="5" fill="#b8dfdf"/>
    <path d="M660 480c25-44 50-42 70-12 16-23 30-23 46-4v40H634z" fill="#77b8af"/>
  </g>

  <g transform="translate(98 650)" filter="url(#shadow)">
    <rect x="0" y="80" width="238" height="148" rx="34" fill="#3b7675"/>
    <rect x="20" y="0" width="198" height="144" rx="38" fill="#55918e"/>
    <rect x="18" y="211" width="18" height="92" rx="9" fill="#315c5d"/>
    <rect x="202" y="211" width="18" height="92" rx="9" fill="#315c5d"/>
    <rect x="36" y="125" width="166" height="18" rx="9" fill="#77aaa5"/>
  </g>

  <g transform="translate(986 538)">
    <path d="M66 240c-18-72-42-129-70-174 63 25 98 72 105 141 9-76 42-135 100-178-21 62-35 132-41 211z" fill="#4f9181"/>
    <path d="M94 239C78 137 80 58 102 0c28 76 35 156 22 239z" fill="#73ad98"/>
    <path d="M42 226C5 166-3 108 18 53c43 45 68 101 75 173z" fill="#87bca8"/>
    <path d="M137 231c9-70 36-118 82-146 1 55-15 104-47 146z" fill="#5d9d8a"/>
    <path d="M42 226h137l-16 151H59z" fill="#eef4f1"/>
    <path d="M54 254h113" stroke="#c1d8d1" stroke-width="12"/>
  </g>

  <g transform="translate(135 354)">
    <circle cx="0" cy="0" r="42" fill="#fff" opacity=".9"/>
    <path d="M0-20v40M-20 0h40" stroke="#438b82" stroke-width="10" stroke-linecap="round"/>
  </g>
  <g transform="translate(455 240)" fill="#fff" opacity=".8">
    <circle cx="0" cy="0" r="11"/>
    <circle cx="48" cy="46" r="7"/>
    <circle cx="-22" cy="72" r="6"/>
  </g>
</svg>
